<svg xmlns="http://www.w3.org/2000/svg" width="24" height="24" fill="none" viewBox="0 0 24 24">
  <path fill="#1E293B" d="M15 3a6 6 0 0 0-5.657 8.1l-6.121 6.12a1.5 1.5 0 0 0-.439 1.06V20a1 1 0 0 0 1 1h1.72a1 1 0 0 0 .707-.293L7 19.707V18h1.707l1.5-1.5H12v-1.793l.218-.218A6 6 0 1 0 15 3Zm0 2a4 4 0 1 1-2.828 6.828 1 1 0 0 0-1.414 1.414l.121.121A1 1 0 0 1 11 13v.586l-1.207 1.207H8.5a1 1 0 0 0-1 1v.293l-.707.707H6v-1.086l6.38-6.38a1 1 0 0 0-.335-1.633A4 4 0 0 1 15 5Z"/>
  <circle cx="15" cy="9" r="1.5" fill="#3B82F6"/>
</svg>
