<svg xmlns="http://www.w3.org/2000/svg" viewBox="0 0 16 16" fill="none">
  <path d="M8 0.5c.2 0 .4.05.58.15l5.5 2.75A1 1 0 0 1 14.5 4.3V7c0 3.92-2.36 6.97-5.8 8.3a1 1 0 0 1-.7 0C4.56 13.97 2.2 10.92 2.2 7V4.3a1 1 0 0 1 .92-.9l5.5-2.75A1 1 0 0 1 8 0.5Z" fill="#3d63dd"/>
  <path d="M8 2.02 3.7 4.17V7c0 3.1 1.9 5.7 4.3 6.85 2.4-1.15 4.3-3.75 4.3-6.85V4.17L8 2.02Z" fill="white"/>
  <path d="M7.999 4.5c.276 0 .5.224.5.5v3.293l1.353 1.354a.5.5 0 0 1-.707.707l-1.5-1.5A.5.5 0 0 1 7.5 8.5v-3.5c0-.276.224-.5.5-.5Z" fill="#3d63dd"/>
</svg>
